<svg width="114" height="41" viewBox="0 0 114 41" fill="none" xmlns="http://www.w3.org/2000/svg">
<path d="M40.7684 21.0909H38.6164V18.4773H36.0454V21.0909H34.4971V23.0796H36.0454V29.1449C36.0312 31.1975 37.5227 32.206 39.4545 32.1492C40.1861 32.1279 40.6903 31.9858 40.9673 31.8935L40.5341 29.8835C40.392 29.9191 40.1008 29.983 39.7812 29.983C39.1349 29.983 38.6164 29.7557 38.6164 28.7188V23.0796H40.7684V21.0909Z" fill="white"/>
<path d="M50.321 32H52.892V21.091H50.321V32ZM51.6136 19.5427C52.4304 19.5427 53.098 18.9177 53.098 18.1506C53.098 17.3765 52.4304 16.7515 51.6136 16.7515C50.7897 16.7515 50.1221 17.3765 50.1221 18.1506C50.1221 18.9177 50.7897 19.5427 51.6136 19.5427Z" fill="white"/>
<path d="M63.321 34.5L65.8921 32V25.3665C65.8921 24.0241 66.787 23.115 67.8949 23.115C68.9816 23.115 69.7273 23.8466 69.7273 24.9687V32H72.2486V25.196C72.2486 23.9673 72.9801 23.115 74.223 23.115C75.26 23.115 76.0838 23.7258 76.0838 25.0753V32L78.662 34.5V24.6775C78.662 22.2415 77.2557 20.9489 75.2529 20.9489C73.6691 20.9489 72.4617 21.7301 71.9787 22.9446H71.8651C71.446 21.7088 70.3878 20.9489 68.9176 20.9489C67.4546 20.9489 66.3608 21.7017 65.9063 22.9446H65.7784V21.0909L63.321 17V34.5Z" fill="white"/>
<path d="M93.1506 32.2131C95.6932 32.2131 97.4404 30.9702 97.8949 29.0739L95.4943 28.804C95.1463 29.7273 94.2941 30.2102 93.1861 30.2102C91.5242 30.2102 90.4233 29.1165 90.402 27.2486H98.0014V26.4602C98.0014 22.6321 95.7003 20.9489 93.0156 20.9489C89.8906 20.9489 87.8523 23.2429 87.8523 26.6094C87.8523 30.0327 89.8622 32.2131 93.1506 32.2131ZM90.4091 25.5156C90.4872 24.1236 91.5171 22.9517 93.0512 22.9517C94.5284 22.9517 95.5227 24.0312 95.537 25.5156H90.4091Z" fill="white"/>
<path d="M107.321 31.9999H109.892V25.5866C109.892 24.2016 110.936 23.2215 112.349 23.2215C112.783 23.2215 113.322 23.2996 113.543 23.3706V21.0056C113.308 20.963 112.903 20.9346 112.619 20.9346C111.369 20.9346 110.325 21.6448 109.928 22.909H109.814V21.0908H107.321V31.9999Z" fill="white"/>
<path d="M28.8374 33.2669C30.2691 33.2669 31.4946 32.0779 31.5067 30.5977C31.4946 29.1417 30.2691 27.9527 28.8374 27.9527C27.3572 27.9527 26.156 29.1417 26.1681 30.5977C26.156 32.0779 27.3572 33.2669 28.8374 33.2669Z" fill="#D800B9"/>
<path d="M12 34C17.5228 34 22 29.5228 22 24C22 18.4772 17.5228 14 12 14C6.47715 14 2 18.4772 2 24C2 29.5228 6.47715 34 12 34Z" stroke="white" stroke-width="2" stroke-linecap="round" stroke-linejoin="round"/>
<path d="M12 20V26L16 28" stroke="#D800B9" stroke-width="2" stroke-linecap="round" stroke-linejoin="round"/>
</svg>
